<svg xmlns="http://www.w3.org/2000/svg" viewBox="0 0 496 496"><defs><style>.cls-1{fill:#38bcdb;}.cls-2{fill:#231f20;}</style></defs><title>chevron-circle-down-solid</title><g id="Layer_2" data-name="Layer 2"><circle class="cls-1" cx="237" cy="242" r="217"/></g><g id="Layer_1" data-name="Layer 1"><path class="cls-2" d="M504,256c0,137-111,248-248,248S8,393,8,256,119,8,256,8,504,119,504,256ZM273,369.9,408.5,234.4a23.9,23.9,0,0,0,0-33.9l-17-17a23.9,23.9,0,0,0-33.9,0L256,285.1,154.4,183.5a23.9,23.9,0,0,0-33.9,0l-17,17a23.9,23.9,0,0,0,0,33.9L239,369.9A24,24,0,0,0,273,369.9Z" transform="translate(-8 -8)"/></g></svg>