<svg xmlns="http://www.w3.org/2000/svg" viewBox="0 0 496 496"><defs><style>.cls-1{fill:#231f20;}.cls-2{fill:#38bcdb;}</style></defs><title>chevron-circle-right-solid</title><g id="Layer_2" data-name="Layer 2"><circle class="cls-1" cx="237" cy="242" r="217"/></g><g id="Layer_1" data-name="Layer 1"><path class="cls-2" d="M256,8C393,8,504,119,504,256S393,504,256,504,8,393,8,256,119,8,256,8ZM369.9,239,234.4,103.5a23.9,23.9,0,0,0-33.9,0l-17,17a23.9,23.9,0,0,0,0,33.9L285.1,256,183.5,357.6a23.9,23.9,0,0,0,0,33.9l17,17a23.9,23.9,0,0,0,33.9,0L369.9,273A24,24,0,0,0,369.9,239Z" transform="translate(-8 -8)"/></g></svg>