<svg xmlns="http://www.w3.org/2000/svg" width="300" height="93" viewBox="0 0 1000.27 308.87"><defs><style>.cls-1{isolation:isolate;}.cls-2{fill:#38bcdb;}.cls-2,.cls-3,.cls-4{mix-blend-mode:overlay;}.cls-3{fill:#2e91a3;}.cls-4{fill:#6ccce6;}.cls-5{fill:#fff;}.cls-6{fill:#231f20;}</style></defs><title>tes_logo_hz_bglt</title><g class="cls-1"><g id="Layer_2" data-name="Layer 2"><g id="Layer_1-2" data-name="Layer 1"><polygon class="cls-2" points="337.73 79.57 383.67 0 205.76 0 205.76 0.26 337.73 79.57"/><polygon class="cls-2" points="205.76 0 205.34 0 205.55 0.13 205.76 0"/><polygon class="cls-2" points="205.34 0 27.01 0 72.81 79.32 205.34 0.25 205.34 0"/><polygon class="cls-2" points="204.88 308.07 205.34 308.87 205.34 308.49 204.88 308.07"/><polygon class="cls-3" points="205.34 308.87 205.55 308.68 205.49 308.62 205.34 308.87"/><polygon class="cls-3" points="205.76 308.49 409.59 122.76 337.73 79.57 205.76 308.14 205.76 308.49"/><polygon class="cls-2" points="205.76 75.45 281.12 75.45 281.12 110.9 227.69 110.9 227.69 221.25 205.76 221.25 205.76 308.14 337.73 79.57 205.76 0.26 205.76 75.45"/><polygon class="cls-3" points="205.76 75.45 281.12 75.45 281.12 110.9 227.69 110.9 227.69 221.25 205.76 221.25 205.76 308.14 337.73 79.57 205.76 0.26 205.76 75.45"/><polygon class="cls-2" points="205.34 308.49 205.34 308.87 205.49 308.62 205.34 308.49"/><polygon class="cls-3" points="205.34 308.49 205.34 308.87 205.49 308.62 205.34 308.49"/><polygon class="cls-2" points="205.55 0.13 205.34 0 205.34 0.25 205.55 0.13"/><polygon class="cls-3" points="205.55 0.13 205.34 0 205.34 0.25 205.55 0.13"/><polygon class="cls-4" points="205.76 308.49 205.55 308.68 205.76 308.87 205.76 308.49"/><polygon class="cls-4" points="0 122.76 204.88 308.07 72.81 79.32 0 122.76"/><polygon class="cls-2" points="205.34 221.25 183.82 221.25 183.82 110.9 130.39 110.9 130.39 75.45 205.34 75.45 205.34 0.25 72.81 79.32 204.88 308.07 205.34 308.49 205.34 221.25"/><polygon class="cls-4" points="205.34 221.25 183.82 221.25 183.82 110.9 130.39 110.9 130.39 75.45 205.34 75.45 205.34 0.25 72.81 79.32 204.88 308.07 205.34 308.49 205.34 221.25"/><polygon class="cls-2" points="205.76 0.26 205.76 0 205.55 0.13 205.76 0.26"/><polygon class="cls-4" points="205.76 0.26 205.76 0 205.55 0.13 205.76 0.26"/><polygon class="cls-3" points="205.76 308.14 205.49 308.62 205.55 308.68 205.76 308.49 205.76 308.14"/><polygon class="cls-4" points="205.76 308.14 205.49 308.62 205.55 308.68 205.76 308.49 205.76 308.14"/><polygon class="cls-2" points="205.34 221.25 205.34 308.49 205.49 308.62 205.76 308.14 205.76 221.25 205.34 221.25"/><polygon class="cls-3" points="205.34 221.25 205.34 308.49 205.49 308.62 205.76 308.14 205.76 221.25 205.34 221.25"/><polygon class="cls-4" points="205.34 221.25 205.34 308.49 205.49 308.62 205.76 308.14 205.76 221.25 205.34 221.25"/><polygon class="cls-2" points="205.76 0.26 205.55 0.13 205.34 0.25 205.34 75.45 205.76 75.45 205.76 0.26"/><polygon class="cls-3" points="205.76 0.26 205.55 0.13 205.34 0.25 205.34 75.45 205.76 75.45 205.76 0.26"/><polygon class="cls-4" points="205.76 0.26 205.55 0.13 205.34 0.25 205.34 75.45 205.76 75.45 205.76 0.26"/><polygon class="cls-5" points="227.69 221.25 227.69 110.9 281.12 110.9 281.12 75.45 205.76 75.45 205.34 75.45 130.39 75.45 130.39 110.9 183.82 110.9 183.82 221.25 205.34 221.25 205.76 221.25 227.69 221.25"/></g></g></g></svg>